<mxfile host="app.diagrams.net" modified="2021-11-14T23:06:37.509Z" agent="5.0 (Macintosh; Intel Mac OS X 10_15_7) AppleWebKit/537.36 (KHTML, like Gecko) Chrome/95.0.4638.69 Safari/537.36" etag="y8E25sVSOgVgoiprNhyX" version="15.7.3" type="github">
  <diagram id="nCbSpSErxCVFQ93xn57w" name="Page-1">
    <mxGraphModel dx="1149" dy="570" grid="1" gridSize="10" guides="1" tooltips="1" connect="1" arrows="1" fold="1" page="1" pageScale="1" pageWidth="850" pageHeight="1100" math="0" shadow="0">
      <root>
        <mxCell id="0" />
        <mxCell id="1" parent="0" />
        <mxCell id="q3fk3JWQwC8cP3Qxw6nV-1" value="Jugador" style="whiteSpace=wrap;html=1;align=center;" parent="1" vertex="1">
          <mxGeometry x="280" y="294.27" width="100" height="35.73" as="geometry" />
        </mxCell>
        <mxCell id="q3fk3JWQwC8cP3Qxw6nV-2" value="Nombre" style="ellipse;whiteSpace=wrap;html=1;align=center;" parent="1" vertex="1">
          <mxGeometry x="120" y="254.26999999999998" width="80" height="30" as="geometry" />
        </mxCell>
        <mxCell id="q3fk3JWQwC8cP3Qxw6nV-3" value="" style="endArrow=none;html=1;rounded=0;entryX=0.998;entryY=0.594;entryDx=0;entryDy=0;entryPerimeter=0;exitX=0.107;exitY=0;exitDx=0;exitDy=0;exitPerimeter=0;" parent="1" source="q3fk3JWQwC8cP3Qxw6nV-1" target="q3fk3JWQwC8cP3Qxw6nV-2" edge="1">
          <mxGeometry width="50" height="50" relative="1" as="geometry">
            <mxPoint x="375.36392405063305" y="334.27" as="sourcePoint" />
            <mxPoint x="500.99999999999994" y="402.27" as="targetPoint" />
          </mxGeometry>
        </mxCell>
        <mxCell id="q3fk3JWQwC8cP3Qxw6nV-4" value="apellido paterno" style="ellipse;whiteSpace=wrap;html=1;align=center;" parent="1" vertex="1">
          <mxGeometry x="135" y="219.27" width="100" height="30" as="geometry" />
        </mxCell>
        <mxCell id="q3fk3JWQwC8cP3Qxw6nV-5" value="" style="endArrow=none;html=1;rounded=0;entryX=0.551;entryY=0.997;entryDx=0;entryDy=0;entryPerimeter=0;exitX=0.319;exitY=0.001;exitDx=0;exitDy=0;exitPerimeter=0;" parent="1" source="q3fk3JWQwC8cP3Qxw6nV-1" target="q3fk3JWQwC8cP3Qxw6nV-4" edge="1">
          <mxGeometry width="50" height="50" relative="1" as="geometry">
            <mxPoint x="390.69999999999993" y="284.27" as="sourcePoint" />
            <mxPoint x="601" y="392.27" as="targetPoint" />
          </mxGeometry>
        </mxCell>
        <mxCell id="q3fk3JWQwC8cP3Qxw6nV-6" value="apellido materno" style="ellipse;whiteSpace=wrap;html=1;align=center;" parent="1" vertex="1">
          <mxGeometry x="210" y="194.27" width="100" height="25.73" as="geometry" />
        </mxCell>
        <mxCell id="q3fk3JWQwC8cP3Qxw6nV-7" value="" style="endArrow=none;html=1;rounded=0;entryX=0.429;entryY=1.006;entryDx=0;entryDy=0;entryPerimeter=0;exitX=0.635;exitY=-0.01;exitDx=0;exitDy=0;exitPerimeter=0;" parent="1" source="q3fk3JWQwC8cP3Qxw6nV-1" target="q3fk3JWQwC8cP3Qxw6nV-6" edge="1">
          <mxGeometry width="50" height="50" relative="1" as="geometry">
            <mxPoint x="321.9000000000001" y="304.31000000000006" as="sourcePoint" />
            <mxPoint x="335.1" y="254.15" as="targetPoint" />
          </mxGeometry>
        </mxCell>
        <mxCell id="EKluyFcLPia6Svizf0oM-1" value="peso" style="ellipse;whiteSpace=wrap;html=1;align=center;" vertex="1" parent="1">
          <mxGeometry x="105" y="370" width="100" height="30" as="geometry" />
        </mxCell>
        <mxCell id="EKluyFcLPia6Svizf0oM-3" value="" style="endArrow=none;dashed=1;html=1;dashPattern=1 3;strokeWidth=2;rounded=0;exitX=0.793;exitY=0.095;exitDx=0;exitDy=0;exitPerimeter=0;entryX=-0.006;entryY=0.806;entryDx=0;entryDy=0;entryPerimeter=0;" edge="1" parent="1" source="EKluyFcLPia6Svizf0oM-1" target="q3fk3JWQwC8cP3Qxw6nV-1">
          <mxGeometry width="50" height="50" relative="1" as="geometry">
            <mxPoint x="290" y="406.27" as="sourcePoint" />
            <mxPoint x="310" y="354.27" as="targetPoint" />
          </mxGeometry>
        </mxCell>
        <mxCell id="EKluyFcLPia6Svizf0oM-4" value="fecha nacimiento" style="ellipse;whiteSpace=wrap;html=1;align=center;" vertex="1" parent="1">
          <mxGeometry x="320" y="194.27" width="100" height="40" as="geometry" />
        </mxCell>
        <mxCell id="EKluyFcLPia6Svizf0oM-5" value="" style="endArrow=none;html=1;rounded=0;entryX=0.5;entryY=1;entryDx=0;entryDy=0;exitX=0.833;exitY=0.014;exitDx=0;exitDy=0;exitPerimeter=0;" edge="1" target="EKluyFcLPia6Svizf0oM-4" parent="1" source="q3fk3JWQwC8cP3Qxw6nV-1">
          <mxGeometry width="50" height="50" relative="1" as="geometry">
            <mxPoint x="380.0000000000001" y="311.94999999999993" as="sourcePoint" />
            <mxPoint x="587.6" y="306.27" as="targetPoint" />
          </mxGeometry>
        </mxCell>
        <mxCell id="EKluyFcLPia6Svizf0oM-7" value="&lt;u&gt;CURP&lt;/u&gt;" style="ellipse;whiteSpace=wrap;html=1;align=center;" vertex="1" parent="1">
          <mxGeometry x="400" y="229.99999999999997" width="100" height="40" as="geometry" />
        </mxCell>
        <mxCell id="EKluyFcLPia6Svizf0oM-8" value="" style="endArrow=none;html=1;rounded=0;entryX=-0.016;entryY=0.511;entryDx=0;entryDy=0;entryPerimeter=0;exitX=1.001;exitY=0.136;exitDx=0;exitDy=0;exitPerimeter=0;" edge="1" target="EKluyFcLPia6Svizf0oM-7" parent="1" source="q3fk3JWQwC8cP3Qxw6nV-1">
          <mxGeometry width="50" height="50" relative="1" as="geometry">
            <mxPoint x="365.36392405063305" y="294.27" as="sourcePoint" />
            <mxPoint x="490.99999999999994" y="362.27" as="targetPoint" />
          </mxGeometry>
        </mxCell>
        <mxCell id="EKluyFcLPia6Svizf0oM-11" value="talla" style="ellipse;whiteSpace=wrap;html=1;align=center;" vertex="1" parent="1">
          <mxGeometry x="95" y="337.0800000000001" width="100" height="22.92" as="geometry" />
        </mxCell>
        <mxCell id="EKluyFcLPia6Svizf0oM-12" value="" style="endArrow=none;dashed=1;html=1;dashPattern=1 3;strokeWidth=2;rounded=0;exitX=0.986;exitY=0.387;exitDx=0;exitDy=0;exitPerimeter=0;entryX=-0.002;entryY=0.524;entryDx=0;entryDy=0;entryPerimeter=0;" edge="1" source="EKluyFcLPia6Svizf0oM-11" parent="1" target="q3fk3JWQwC8cP3Qxw6nV-1">
          <mxGeometry width="50" height="50" relative="1" as="geometry">
            <mxPoint x="171.4" y="287.35" as="sourcePoint" />
            <mxPoint x="280" y="294.27" as="targetPoint" />
          </mxGeometry>
        </mxCell>
        <mxCell id="EKluyFcLPia6Svizf0oM-13" value="Entrenador" style="whiteSpace=wrap;html=1;align=center;" vertex="1" parent="1">
          <mxGeometry x="1170" y="290" width="100" height="40" as="geometry" />
        </mxCell>
        <mxCell id="EKluyFcLPia6Svizf0oM-14" value="Nombre" style="ellipse;whiteSpace=wrap;html=1;align=center;" vertex="1" parent="1">
          <mxGeometry x="1050" y="260" width="80" height="30" as="geometry" />
        </mxCell>
        <mxCell id="EKluyFcLPia6Svizf0oM-15" value="" style="endArrow=none;html=1;rounded=0;entryX=0.998;entryY=0.594;entryDx=0;entryDy=0;entryPerimeter=0;exitX=0.107;exitY=0;exitDx=0;exitDy=0;exitPerimeter=0;" edge="1" parent="1" source="EKluyFcLPia6Svizf0oM-13" target="EKluyFcLPia6Svizf0oM-14">
          <mxGeometry width="50" height="50" relative="1" as="geometry">
            <mxPoint x="1265.3639240506332" y="330" as="sourcePoint" />
            <mxPoint x="1391" y="398" as="targetPoint" />
          </mxGeometry>
        </mxCell>
        <mxCell id="EKluyFcLPia6Svizf0oM-16" value="apellido paterno" style="ellipse;whiteSpace=wrap;html=1;align=center;" vertex="1" parent="1">
          <mxGeometry x="1090" y="220" width="100" height="40" as="geometry" />
        </mxCell>
        <mxCell id="EKluyFcLPia6Svizf0oM-17" value="" style="endArrow=none;html=1;rounded=0;entryX=0.551;entryY=0.997;entryDx=0;entryDy=0;entryPerimeter=0;exitX=0.319;exitY=0.001;exitDx=0;exitDy=0;exitPerimeter=0;" edge="1" parent="1" source="EKluyFcLPia6Svizf0oM-13" target="EKluyFcLPia6Svizf0oM-16">
          <mxGeometry width="50" height="50" relative="1" as="geometry">
            <mxPoint x="1280.6999999999998" y="280" as="sourcePoint" />
            <mxPoint x="1491" y="388" as="targetPoint" />
          </mxGeometry>
        </mxCell>
        <mxCell id="EKluyFcLPia6Svizf0oM-18" value="apellido materno" style="ellipse;whiteSpace=wrap;html=1;align=center;" vertex="1" parent="1">
          <mxGeometry x="1190" y="220" width="100" height="40" as="geometry" />
        </mxCell>
        <mxCell id="EKluyFcLPia6Svizf0oM-19" value="" style="endArrow=none;html=1;rounded=0;entryX=0.429;entryY=1.006;entryDx=0;entryDy=0;entryPerimeter=0;exitX=0.635;exitY=-0.01;exitDx=0;exitDy=0;exitPerimeter=0;" edge="1" parent="1" source="EKluyFcLPia6Svizf0oM-13" target="EKluyFcLPia6Svizf0oM-18">
          <mxGeometry width="50" height="50" relative="1" as="geometry">
            <mxPoint x="1211.9" y="300.0400000000001" as="sourcePoint" />
            <mxPoint x="1225.1" y="249.87999999999997" as="targetPoint" />
          </mxGeometry>
        </mxCell>
        <mxCell id="EKluyFcLPia6Svizf0oM-22" value="telefono" style="ellipse;whiteSpace=wrap;html=1;align=center;" vertex="1" parent="1">
          <mxGeometry x="1290" y="240" width="100" height="40" as="geometry" />
        </mxCell>
        <mxCell id="EKluyFcLPia6Svizf0oM-23" value="" style="endArrow=none;html=1;rounded=0;entryX=0.033;entryY=0.675;entryDx=0;entryDy=0;exitX=0.833;exitY=0.014;exitDx=0;exitDy=0;exitPerimeter=0;entryPerimeter=0;" edge="1" parent="1" source="EKluyFcLPia6Svizf0oM-13" target="EKluyFcLPia6Svizf0oM-22">
          <mxGeometry width="50" height="50" relative="1" as="geometry">
            <mxPoint x="1270" y="307.67999999999995" as="sourcePoint" />
            <mxPoint x="1477.6" y="302" as="targetPoint" />
          </mxGeometry>
        </mxCell>
        <mxCell id="EKluyFcLPia6Svizf0oM-28" value="Tutor" style="whiteSpace=wrap;html=1;align=center;" vertex="1" parent="1">
          <mxGeometry x="210" y="525" width="100" height="40" as="geometry" />
        </mxCell>
        <mxCell id="EKluyFcLPia6Svizf0oM-31" value="apellido paterno" style="ellipse;whiteSpace=wrap;html=1;align=center;" vertex="1" parent="1">
          <mxGeometry x="65" y="520" width="100" height="40" as="geometry" />
        </mxCell>
        <mxCell id="EKluyFcLPia6Svizf0oM-32" value="" style="endArrow=none;html=1;rounded=0;entryX=0.981;entryY=0.414;entryDx=0;entryDy=0;entryPerimeter=0;exitX=0;exitY=0.25;exitDx=0;exitDy=0;" edge="1" parent="1" source="EKluyFcLPia6Svizf0oM-28" target="EKluyFcLPia6Svizf0oM-31">
          <mxGeometry width="50" height="50" relative="1" as="geometry">
            <mxPoint x="320.69999999999993" y="515" as="sourcePoint" />
            <mxPoint x="531" y="623" as="targetPoint" />
          </mxGeometry>
        </mxCell>
        <mxCell id="EKluyFcLPia6Svizf0oM-33" value="direccion" style="ellipse;whiteSpace=wrap;html=1;align=center;" vertex="1" parent="1">
          <mxGeometry x="155" y="636.46" width="100" height="40" as="geometry" />
        </mxCell>
        <mxCell id="EKluyFcLPia6Svizf0oM-40" value="apellido materno" style="ellipse;whiteSpace=wrap;html=1;align=center;" vertex="1" parent="1">
          <mxGeometry x="70" y="565" width="90" height="31.46" as="geometry" />
        </mxCell>
        <mxCell id="EKluyFcLPia6Svizf0oM-41" value="" style="endArrow=none;dashed=1;html=1;dashPattern=1 3;strokeWidth=2;rounded=0;exitX=0.986;exitY=0.387;exitDx=0;exitDy=0;exitPerimeter=0;entryX=-0.002;entryY=0.524;entryDx=0;entryDy=0;entryPerimeter=0;" edge="1" parent="1" source="EKluyFcLPia6Svizf0oM-40" target="EKluyFcLPia6Svizf0oM-28">
          <mxGeometry width="50" height="50" relative="1" as="geometry">
            <mxPoint x="101.4" y="518.0799999999999" as="sourcePoint" />
            <mxPoint x="210.00000000000003" y="525" as="targetPoint" />
          </mxGeometry>
        </mxCell>
        <mxCell id="EKluyFcLPia6Svizf0oM-42" value="número" style="ellipse;whiteSpace=wrap;html=1;align=center;" vertex="1" parent="1">
          <mxGeometry x="165" y="596.46" width="70" height="20" as="geometry" />
        </mxCell>
        <mxCell id="EKluyFcLPia6Svizf0oM-44" value="calle" style="ellipse;whiteSpace=wrap;html=1;align=center;" vertex="1" parent="1">
          <mxGeometry x="120" y="611.46" width="50" height="20" as="geometry" />
        </mxCell>
        <mxCell id="EKluyFcLPia6Svizf0oM-45" value="" style="endArrow=none;html=1;rounded=0;entryX=0.618;entryY=0.993;entryDx=0;entryDy=0;entryPerimeter=0;exitX=0.298;exitY=0.074;exitDx=0;exitDy=0;exitPerimeter=0;" edge="1" target="EKluyFcLPia6Svizf0oM-44" parent="1" source="EKluyFcLPia6Svizf0oM-33">
          <mxGeometry width="50" height="50" relative="1" as="geometry">
            <mxPoint x="99.99999999999989" y="586.46" as="sourcePoint" />
            <mxPoint x="281.59999999999997" y="538.62" as="targetPoint" />
          </mxGeometry>
        </mxCell>
        <mxCell id="EKluyFcLPia6Svizf0oM-46" value="delegación" style="ellipse;whiteSpace=wrap;html=1;align=center;" vertex="1" parent="1">
          <mxGeometry x="240" y="596.46" width="70" height="20" as="geometry" />
        </mxCell>
        <mxCell id="EKluyFcLPia6Svizf0oM-47" value="colonia" style="ellipse;whiteSpace=wrap;html=1;align=center;" vertex="1" parent="1">
          <mxGeometry x="265" y="621.46" width="60" height="20" as="geometry" />
        </mxCell>
        <mxCell id="EKluyFcLPia6Svizf0oM-48" value="estado" style="ellipse;whiteSpace=wrap;html=1;align=center;" vertex="1" parent="1">
          <mxGeometry x="270" y="646.46" width="60" height="20" as="geometry" />
        </mxCell>
        <mxCell id="EKluyFcLPia6Svizf0oM-49" value="c.p." style="ellipse;whiteSpace=wrap;html=1;align=center;" vertex="1" parent="1">
          <mxGeometry x="265" y="671.46" width="60" height="20" as="geometry" />
        </mxCell>
        <mxCell id="EKluyFcLPia6Svizf0oM-52" value="" style="endArrow=none;html=1;rounded=0;entryX=0.312;entryY=0.947;entryDx=0;entryDy=0;entryPerimeter=0;exitX=0.558;exitY=0.002;exitDx=0;exitDy=0;exitPerimeter=0;" edge="1" parent="1" source="EKluyFcLPia6Svizf0oM-33" target="EKluyFcLPia6Svizf0oM-42">
          <mxGeometry width="50" height="50" relative="1" as="geometry">
            <mxPoint x="129.9999999999999" y="586.46" as="sourcePoint" />
            <mxPoint x="130.89999999999998" y="576.3199999999999" as="targetPoint" />
          </mxGeometry>
        </mxCell>
        <mxCell id="EKluyFcLPia6Svizf0oM-53" value="" style="endArrow=none;html=1;rounded=0;entryX=0.02;entryY=0.621;entryDx=0;entryDy=0;entryPerimeter=0;exitX=0.807;exitY=0.095;exitDx=0;exitDy=0;exitPerimeter=0;" edge="1" parent="1" source="EKluyFcLPia6Svizf0oM-33" target="EKluyFcLPia6Svizf0oM-46">
          <mxGeometry width="50" height="50" relative="1" as="geometry">
            <mxPoint x="149.9999999999999" y="591.53" as="sourcePoint" />
            <mxPoint x="150.89999999999998" y="581.39" as="targetPoint" />
          </mxGeometry>
        </mxCell>
        <mxCell id="EKluyFcLPia6Svizf0oM-54" value="" style="endArrow=none;html=1;rounded=0;entryX=0.017;entryY=0.326;entryDx=0;entryDy=0;entryPerimeter=0;exitX=0.939;exitY=0.694;exitDx=0;exitDy=0;exitPerimeter=0;" edge="1" parent="1" source="EKluyFcLPia6Svizf0oM-33" target="EKluyFcLPia6Svizf0oM-49">
          <mxGeometry width="50" height="50" relative="1" as="geometry">
            <mxPoint x="179.0999999999999" y="626.5999999999999" as="sourcePoint" />
            <mxPoint x="180" y="616.46" as="targetPoint" />
          </mxGeometry>
        </mxCell>
        <mxCell id="EKluyFcLPia6Svizf0oM-55" value="" style="endArrow=none;html=1;rounded=0;entryX=0.033;entryY=0.307;entryDx=0;entryDy=0;entryPerimeter=0;exitX=0.997;exitY=0.467;exitDx=0;exitDy=0;exitPerimeter=0;" edge="1" parent="1" source="EKluyFcLPia6Svizf0oM-33" target="EKluyFcLPia6Svizf0oM-48">
          <mxGeometry width="50" height="50" relative="1" as="geometry">
            <mxPoint x="189.9999999999999" y="611.53" as="sourcePoint" />
            <mxPoint x="190.89999999999998" y="601.39" as="targetPoint" />
          </mxGeometry>
        </mxCell>
        <mxCell id="EKluyFcLPia6Svizf0oM-56" value="" style="endArrow=none;html=1;rounded=0;entryX=-0.004;entryY=0.586;entryDx=0;entryDy=0;entryPerimeter=0;exitX=0.939;exitY=0.264;exitDx=0;exitDy=0;exitPerimeter=0;" edge="1" parent="1" source="EKluyFcLPia6Svizf0oM-33" target="EKluyFcLPia6Svizf0oM-47">
          <mxGeometry width="50" height="50" relative="1" as="geometry">
            <mxPoint x="149.9999999999999" y="636.46" as="sourcePoint" />
            <mxPoint x="150.89999999999998" y="626.3199999999999" as="targetPoint" />
          </mxGeometry>
        </mxCell>
        <mxCell id="EKluyFcLPia6Svizf0oM-57" value="Equipo" style="whiteSpace=wrap;html=1;align=center;" vertex="1" parent="1">
          <mxGeometry x="730" y="294.27" width="100" height="40" as="geometry" />
        </mxCell>
        <mxCell id="EKluyFcLPia6Svizf0oM-59" value="Nombre" style="ellipse;whiteSpace=wrap;html=1;align=center;" vertex="1" parent="1">
          <mxGeometry x="610" y="234.27" width="70" height="20" as="geometry" />
        </mxCell>
        <mxCell id="EKluyFcLPia6Svizf0oM-60" value="" style="endArrow=none;html=1;rounded=0;entryX=0.961;entryY=0.698;entryDx=0;entryDy=0;entryPerimeter=0;exitX=0.056;exitY=-0.005;exitDx=0;exitDy=0;exitPerimeter=0;" edge="1" parent="1" source="EKluyFcLPia6Svizf0oM-57" target="EKluyFcLPia6Svizf0oM-59">
          <mxGeometry width="50" height="50" relative="1" as="geometry">
            <mxPoint x="840.6999999999999" y="284.27" as="sourcePoint" />
            <mxPoint x="1051" y="392.27" as="targetPoint" />
          </mxGeometry>
        </mxCell>
        <mxCell id="EKluyFcLPia6Svizf0oM-61" value="Fecha creación" style="ellipse;whiteSpace=wrap;html=1;align=center;" vertex="1" parent="1">
          <mxGeometry x="680" y="226.4" width="100" height="25.73" as="geometry" />
        </mxCell>
        <mxCell id="EKluyFcLPia6Svizf0oM-62" value="" style="endArrow=none;html=1;rounded=0;entryX=0.429;entryY=1.006;entryDx=0;entryDy=0;entryPerimeter=0;exitX=0.142;exitY=-0.005;exitDx=0;exitDy=0;exitPerimeter=0;" edge="1" parent="1" source="EKluyFcLPia6Svizf0oM-57" target="EKluyFcLPia6Svizf0oM-61">
          <mxGeometry width="50" height="50" relative="1" as="geometry">
            <mxPoint x="771.9000000000001" y="304.31" as="sourcePoint" />
            <mxPoint x="785.1" y="254.15" as="targetPoint" />
          </mxGeometry>
        </mxCell>
        <mxCell id="EKluyFcLPia6Svizf0oM-64" value="telefono emergencia" style="ellipse;shape=doubleEllipse;margin=3;whiteSpace=wrap;html=1;align=center;" vertex="1" parent="1">
          <mxGeometry x="105" y="287.5" width="110" height="45" as="geometry" />
        </mxCell>
        <mxCell id="EKluyFcLPia6Svizf0oM-65" value="" style="endArrow=none;html=1;rounded=0;exitX=0;exitY=0.25;exitDx=0;exitDy=0;entryX=0.986;entryY=0.387;entryDx=0;entryDy=0;entryPerimeter=0;" edge="1" parent="1" source="q3fk3JWQwC8cP3Qxw6nV-1" target="EKluyFcLPia6Svizf0oM-64">
          <mxGeometry width="50" height="50" relative="1" as="geometry">
            <mxPoint x="480" y="384.27" as="sourcePoint" />
            <mxPoint x="530" y="334.27" as="targetPoint" />
          </mxGeometry>
        </mxCell>
        <mxCell id="EKluyFcLPia6Svizf0oM-66" value="ID Tutor" style="ellipse;whiteSpace=wrap;html=1;align=center;fontStyle=4;" vertex="1" parent="1">
          <mxGeometry x="100" y="485" width="70" height="30" as="geometry" />
        </mxCell>
        <mxCell id="EKluyFcLPia6Svizf0oM-74" value="ID equipo" style="ellipse;whiteSpace=wrap;html=1;align=center;fontStyle=4;" vertex="1" parent="1">
          <mxGeometry x="790" y="226.39999999999998" width="100" height="40" as="geometry" />
        </mxCell>
        <mxCell id="EKluyFcLPia6Svizf0oM-75" value="ID entrenador" style="ellipse;whiteSpace=wrap;html=1;align=center;fontStyle=4;" vertex="1" parent="1">
          <mxGeometry x="1330" y="290" width="100" height="40" as="geometry" />
        </mxCell>
        <mxCell id="EKluyFcLPia6Svizf0oM-76" value="" style="endArrow=none;html=1;rounded=0;exitX=0.087;exitY=0.782;exitDx=0;exitDy=0;exitPerimeter=0;entryX=0.431;entryY=-0.005;entryDx=0;entryDy=0;entryPerimeter=0;" edge="1" parent="1" source="EKluyFcLPia6Svizf0oM-74" target="EKluyFcLPia6Svizf0oM-57">
          <mxGeometry width="50" height="50" relative="1" as="geometry">
            <mxPoint x="620" y="354.27" as="sourcePoint" />
            <mxPoint x="670" y="304.27" as="targetPoint" />
          </mxGeometry>
        </mxCell>
        <mxCell id="EKluyFcLPia6Svizf0oM-77" value="" style="endArrow=none;html=1;rounded=0;exitX=1;exitY=0.5;exitDx=0;exitDy=0;entryX=0;entryY=0;entryDx=0;entryDy=0;" edge="1" parent="1" source="EKluyFcLPia6Svizf0oM-66" target="EKluyFcLPia6Svizf0oM-28">
          <mxGeometry width="50" height="50" relative="1" as="geometry">
            <mxPoint x="164.99999999999991" y="497.31000000000006" as="sourcePoint" />
            <mxPoint x="216.5199999999999" y="525" as="targetPoint" />
          </mxGeometry>
        </mxCell>
        <mxCell id="EKluyFcLPia6Svizf0oM-78" value="LOGO" style="ellipse;whiteSpace=wrap;html=1;align=center;" vertex="1" parent="1">
          <mxGeometry x="890" y="249.99999999999997" width="100" height="40" as="geometry" />
        </mxCell>
        <mxCell id="EKluyFcLPia6Svizf0oM-79" value="" style="endArrow=none;html=1;rounded=0;entryX=-0.011;entryY=0.425;entryDx=0;entryDy=0;exitX=0.895;exitY=0.009;exitDx=0;exitDy=0;entryPerimeter=0;exitPerimeter=0;" edge="1" target="EKluyFcLPia6Svizf0oM-78" parent="1" source="EKluyFcLPia6Svizf0oM-57">
          <mxGeometry width="50" height="50" relative="1" as="geometry">
            <mxPoint x="875.363924050633" y="284.27" as="sourcePoint" />
            <mxPoint x="1001" y="352.27" as="targetPoint" />
          </mxGeometry>
        </mxCell>
        <mxCell id="EKluyFcLPia6Svizf0oM-80" value="" style="endArrow=none;html=1;rounded=0;exitX=1;exitY=0.5;exitDx=0;exitDy=0;entryX=-0.008;entryY=0.471;entryDx=0;entryDy=0;entryPerimeter=0;" edge="1" parent="1" source="EKluyFcLPia6Svizf0oM-13" target="EKluyFcLPia6Svizf0oM-75">
          <mxGeometry width="50" height="50" relative="1" as="geometry">
            <mxPoint x="1280" y="480" as="sourcePoint" />
            <mxPoint x="1340" y="330" as="targetPoint" />
          </mxGeometry>
        </mxCell>
        <mxCell id="EKluyFcLPia6Svizf0oM-81" value="Partido" style="whiteSpace=wrap;html=1;align=center;" vertex="1" parent="1">
          <mxGeometry x="660" y="480" width="100" height="40" as="geometry" />
        </mxCell>
        <mxCell id="EKluyFcLPia6Svizf0oM-82" value="Lugar" style="ellipse;whiteSpace=wrap;html=1;align=center;" vertex="1" parent="1">
          <mxGeometry x="710" y="415" width="80" height="30" as="geometry" />
        </mxCell>
        <mxCell id="EKluyFcLPia6Svizf0oM-83" value="" style="endArrow=none;html=1;rounded=0;entryX=0.571;entryY=0.981;entryDx=0;entryDy=0;entryPerimeter=0;exitX=0.806;exitY=-0.051;exitDx=0;exitDy=0;exitPerimeter=0;" edge="1" parent="1" source="EKluyFcLPia6Svizf0oM-81" target="EKluyFcLPia6Svizf0oM-82">
          <mxGeometry width="50" height="50" relative="1" as="geometry">
            <mxPoint x="755.363924050633" y="520" as="sourcePoint" />
            <mxPoint x="881" y="588" as="targetPoint" />
          </mxGeometry>
        </mxCell>
        <mxCell id="EKluyFcLPia6Svizf0oM-84" value="Tipo" style="ellipse;whiteSpace=wrap;html=1;align=center;" vertex="1" parent="1">
          <mxGeometry x="810" y="430" width="60" height="30" as="geometry" />
        </mxCell>
        <mxCell id="EKluyFcLPia6Svizf0oM-85" value="" style="endArrow=none;html=1;rounded=0;entryX=0.015;entryY=0.7;entryDx=0;entryDy=0;entryPerimeter=0;exitX=0.923;exitY=0.011;exitDx=0;exitDy=0;exitPerimeter=0;" edge="1" parent="1" source="EKluyFcLPia6Svizf0oM-81" target="EKluyFcLPia6Svizf0oM-84">
          <mxGeometry width="50" height="50" relative="1" as="geometry">
            <mxPoint x="770.6999999999999" y="470" as="sourcePoint" />
            <mxPoint x="981" y="578" as="targetPoint" />
          </mxGeometry>
        </mxCell>
        <mxCell id="EKluyFcLPia6Svizf0oM-86" value="Fecha&amp;nbsp;" style="ellipse;whiteSpace=wrap;html=1;align=center;" vertex="1" parent="1">
          <mxGeometry x="810" y="470" width="80" height="20" as="geometry" />
        </mxCell>
        <mxCell id="EKluyFcLPia6Svizf0oM-87" value="" style="endArrow=none;html=1;rounded=0;entryX=-0.02;entryY=0.494;entryDx=0;entryDy=0;entryPerimeter=0;exitX=1.017;exitY=0.365;exitDx=0;exitDy=0;exitPerimeter=0;" edge="1" parent="1" source="EKluyFcLPia6Svizf0oM-81" target="EKluyFcLPia6Svizf0oM-86">
          <mxGeometry width="50" height="50" relative="1" as="geometry">
            <mxPoint x="701.9000000000001" y="490.04" as="sourcePoint" />
            <mxPoint x="715.1" y="439.88" as="targetPoint" />
          </mxGeometry>
        </mxCell>
        <mxCell id="EKluyFcLPia6Svizf0oM-88" value="hora" style="ellipse;whiteSpace=wrap;html=1;align=center;" vertex="1" parent="1">
          <mxGeometry x="830" y="500" width="60" height="20" as="geometry" />
        </mxCell>
        <mxCell id="EKluyFcLPia6Svizf0oM-89" value="" style="endArrow=none;html=1;rounded=0;entryX=0.033;entryY=0.675;entryDx=0;entryDy=0;exitX=1.006;exitY=0.865;exitDx=0;exitDy=0;exitPerimeter=0;entryPerimeter=0;" edge="1" parent="1" source="EKluyFcLPia6Svizf0oM-81" target="EKluyFcLPia6Svizf0oM-88">
          <mxGeometry width="50" height="50" relative="1" as="geometry">
            <mxPoint x="760.0000000000001" y="497.67999999999995" as="sourcePoint" />
            <mxPoint x="967.6" y="492" as="targetPoint" />
          </mxGeometry>
        </mxCell>
        <mxCell id="EKluyFcLPia6Svizf0oM-90" value="ID Partido" style="ellipse;whiteSpace=wrap;html=1;align=center;fontStyle=4;" vertex="1" parent="1">
          <mxGeometry x="740" y="566.46" width="80" height="30" as="geometry" />
        </mxCell>
        <mxCell id="EKluyFcLPia6Svizf0oM-91" value="" style="endArrow=none;html=1;rounded=0;exitX=0.728;exitY=0.997;exitDx=0;exitDy=0;entryX=-0.008;entryY=0.471;entryDx=0;entryDy=0;entryPerimeter=0;exitPerimeter=0;" edge="1" parent="1" source="EKluyFcLPia6Svizf0oM-81" target="EKluyFcLPia6Svizf0oM-90">
          <mxGeometry width="50" height="50" relative="1" as="geometry">
            <mxPoint x="770" y="670" as="sourcePoint" />
            <mxPoint x="830" y="520" as="targetPoint" />
          </mxGeometry>
        </mxCell>
        <mxCell id="EKluyFcLPia6Svizf0oM-92" value="Local" style="ellipse;whiteSpace=wrap;html=1;align=center;" vertex="1" parent="1">
          <mxGeometry x="620" y="415" width="80" height="30" as="geometry" />
        </mxCell>
        <mxCell id="EKluyFcLPia6Svizf0oM-93" value="" style="endArrow=none;html=1;rounded=0;entryX=0.81;entryY=0.894;entryDx=0;entryDy=0;entryPerimeter=0;exitX=0.476;exitY=-0.003;exitDx=0;exitDy=0;exitPerimeter=0;" edge="1" parent="1" target="EKluyFcLPia6Svizf0oM-92" source="EKluyFcLPia6Svizf0oM-81">
          <mxGeometry width="50" height="50" relative="1" as="geometry">
            <mxPoint x="680" y="530" as="sourcePoint" />
            <mxPoint x="890.3" y="638" as="targetPoint" />
          </mxGeometry>
        </mxCell>
        <mxCell id="EKluyFcLPia6Svizf0oM-94" value="Visitante" style="ellipse;whiteSpace=wrap;html=1;align=center;" vertex="1" parent="1">
          <mxGeometry x="540" y="430" width="80" height="30" as="geometry" />
        </mxCell>
        <mxCell id="EKluyFcLPia6Svizf0oM-95" value="" style="endArrow=none;html=1;rounded=0;entryX=0.998;entryY=0.594;entryDx=0;entryDy=0;entryPerimeter=0;exitX=-0.009;exitY=0.272;exitDx=0;exitDy=0;exitPerimeter=0;" edge="1" parent="1" target="EKluyFcLPia6Svizf0oM-94" source="EKluyFcLPia6Svizf0oM-81">
          <mxGeometry width="50" height="50" relative="1" as="geometry">
            <mxPoint x="690.7" y="500" as="sourcePoint" />
            <mxPoint x="901" y="608" as="targetPoint" />
          </mxGeometry>
        </mxCell>
        <mxCell id="EKluyFcLPia6Svizf0oM-96" value="marcador" style="ellipse;whiteSpace=wrap;html=1;align=center;" vertex="1" parent="1">
          <mxGeometry x="620" y="566.46" width="80" height="30" as="geometry" />
        </mxCell>
        <mxCell id="EKluyFcLPia6Svizf0oM-97" value="" style="endArrow=none;html=1;rounded=0;entryX=0.681;entryY=0.04;entryDx=0;entryDy=0;entryPerimeter=0;exitX=0.184;exitY=0.99;exitDx=0;exitDy=0;exitPerimeter=0;" edge="1" parent="1" target="EKluyFcLPia6Svizf0oM-96" source="EKluyFcLPia6Svizf0oM-81">
          <mxGeometry width="50" height="50" relative="1" as="geometry">
            <mxPoint x="790.7" y="590" as="sourcePoint" />
            <mxPoint x="1001" y="698" as="targetPoint" />
          </mxGeometry>
        </mxCell>
        <mxCell id="EKluyFcLPia6Svizf0oM-102" style="edgeStyle=orthogonalEdgeStyle;rounded=0;orthogonalLoop=1;jettySize=auto;html=1;exitX=1;exitY=0.5;exitDx=0;exitDy=0;entryX=-0.003;entryY=0.393;entryDx=0;entryDy=0;entryPerimeter=0;" edge="1" parent="1" source="EKluyFcLPia6Svizf0oM-98" target="EKluyFcLPia6Svizf0oM-57">
          <mxGeometry relative="1" as="geometry" />
        </mxCell>
        <mxCell id="EKluyFcLPia6Svizf0oM-98" value="pertenece" style="shape=rhombus;perimeter=rhombusPerimeter;whiteSpace=wrap;html=1;align=center;" vertex="1" parent="1">
          <mxGeometry x="490" y="272" width="120" height="60" as="geometry" />
        </mxCell>
        <mxCell id="EKluyFcLPia6Svizf0oM-101" value="" style="shape=waypoint;sketch=0;fillStyle=solid;size=6;pointerEvents=1;points=[];fillColor=none;resizable=0;rotatable=0;perimeter=centerPerimeter;snapToPoint=1;shadow=0;" vertex="1" parent="1">
          <mxGeometry x="360" y="282" width="40" height="40" as="geometry" />
        </mxCell>
        <mxCell id="EKluyFcLPia6Svizf0oM-103" value="(0,20)" style="text;html=1;align=center;verticalAlign=middle;resizable=0;points=[];autosize=1;strokeColor=none;fillColor=none;" vertex="1" parent="1">
          <mxGeometry x="380" y="282" width="50" height="20" as="geometry" />
        </mxCell>
        <mxCell id="EKluyFcLPia6Svizf0oM-104" value="(1,1)" style="text;html=1;align=center;verticalAlign=middle;resizable=0;points=[];autosize=1;strokeColor=none;fillColor=none;" vertex="1" parent="1">
          <mxGeometry x="690" y="290" width="40" height="20" as="geometry" />
        </mxCell>
        <mxCell id="EKluyFcLPia6Svizf0oM-106" style="edgeStyle=orthogonalEdgeStyle;rounded=0;orthogonalLoop=1;jettySize=auto;html=1;exitX=0;exitY=0.5;exitDx=0;exitDy=0;entryX=1.007;entryY=0.627;entryDx=0;entryDy=0;entryPerimeter=0;" edge="1" parent="1" source="EKluyFcLPia6Svizf0oM-105" target="EKluyFcLPia6Svizf0oM-57">
          <mxGeometry relative="1" as="geometry" />
        </mxCell>
        <mxCell id="EKluyFcLPia6Svizf0oM-107" style="edgeStyle=orthogonalEdgeStyle;rounded=0;orthogonalLoop=1;jettySize=auto;html=1;entryX=-0.007;entryY=0.808;entryDx=0;entryDy=0;entryPerimeter=0;" edge="1" parent="1" source="EKluyFcLPia6Svizf0oM-105" target="EKluyFcLPia6Svizf0oM-13">
          <mxGeometry relative="1" as="geometry" />
        </mxCell>
        <mxCell id="EKluyFcLPia6Svizf0oM-105" value="Tiene" style="shape=rhombus;perimeter=rhombusPerimeter;whiteSpace=wrap;html=1;align=center;" vertex="1" parent="1">
          <mxGeometry x="940" y="290" width="120" height="60" as="geometry" />
        </mxCell>
        <mxCell id="EKluyFcLPia6Svizf0oM-108" value="(0,1)" style="text;html=1;align=center;verticalAlign=middle;resizable=0;points=[];autosize=1;strokeColor=none;fillColor=none;" vertex="1" parent="1">
          <mxGeometry x="830" y="301.35" width="40" height="20" as="geometry" />
        </mxCell>
        <mxCell id="EKluyFcLPia6Svizf0oM-111" value="(1,1)" style="text;html=1;align=center;verticalAlign=middle;resizable=0;points=[];autosize=1;strokeColor=none;fillColor=none;" vertex="1" parent="1">
          <mxGeometry x="1130" y="304.27000000000004" width="40" height="20" as="geometry" />
        </mxCell>
        <mxCell id="EKluyFcLPia6Svizf0oM-112" value="supervisa" style="shape=rhombus;perimeter=rhombusPerimeter;whiteSpace=wrap;html=1;align=center;" vertex="1" parent="1">
          <mxGeometry x="180" y="415" width="120" height="60" as="geometry" />
        </mxCell>
        <mxCell id="EKluyFcLPia6Svizf0oM-113" value="" style="endArrow=none;html=1;startArrow=none;rounded=0;exitX=0.5;exitY=1;exitDx=0;exitDy=0;" edge="1" target="EKluyFcLPia6Svizf0oM-114" parent="1" source="EKluyFcLPia6Svizf0oM-112">
          <mxGeometry width="50" height="50" relative="1" as="geometry">
            <mxPoint x="248" y="480" as="sourcePoint" />
            <mxPoint x="178" y="515" as="targetPoint" />
          </mxGeometry>
        </mxCell>
        <mxCell id="EKluyFcLPia6Svizf0oM-114" value="" style="shape=waypoint;sketch=0;fillStyle=solid;size=6;pointerEvents=1;points=[];fillColor=none;resizable=0;rotatable=0;perimeter=centerPerimeter;snapToPoint=1;shadow=0;" vertex="1" parent="1">
          <mxGeometry x="220" y="505" width="40" height="40" as="geometry" />
        </mxCell>
        <mxCell id="EKluyFcLPia6Svizf0oM-116" value="" style="endArrow=none;html=1;startArrow=none;rounded=0;exitX=0.5;exitY=0;exitDx=0;exitDy=0;" edge="1" target="EKluyFcLPia6Svizf0oM-117" parent="1" source="EKluyFcLPia6Svizf0oM-112">
          <mxGeometry width="50" height="50" relative="1" as="geometry">
            <mxPoint x="290" y="370" as="sourcePoint" />
            <mxPoint x="218" y="485" as="targetPoint" />
            <Array as="points">
              <mxPoint x="240" y="360" />
              <mxPoint x="290" y="360" />
            </Array>
          </mxGeometry>
        </mxCell>
        <mxCell id="EKluyFcLPia6Svizf0oM-117" value="" style="shape=waypoint;sketch=0;fillStyle=solid;size=6;pointerEvents=1;points=[];fillColor=none;resizable=0;rotatable=0;perimeter=centerPerimeter;snapToPoint=1;shadow=0;" vertex="1" parent="1">
          <mxGeometry x="270" y="310" width="40" height="40" as="geometry" />
        </mxCell>
        <mxCell id="EKluyFcLPia6Svizf0oM-119" style="edgeStyle=orthogonalEdgeStyle;rounded=0;orthogonalLoop=1;jettySize=auto;html=1;exitX=0.5;exitY=0;exitDx=0;exitDy=0;entryX=0.551;entryY=1.009;entryDx=0;entryDy=0;entryPerimeter=0;" edge="1" parent="1" source="EKluyFcLPia6Svizf0oM-118" target="q3fk3JWQwC8cP3Qxw6nV-1">
          <mxGeometry relative="1" as="geometry" />
        </mxCell>
        <mxCell id="EKluyFcLPia6Svizf0oM-118" value="lidera" style="shape=rhombus;perimeter=rhombusPerimeter;whiteSpace=wrap;html=1;align=center;" vertex="1" parent="1">
          <mxGeometry x="280" y="380" width="70" height="30" as="geometry" />
        </mxCell>
        <mxCell id="EKluyFcLPia6Svizf0oM-121" value="" style="endArrow=none;html=1;startArrow=none;rounded=0;exitX=1;exitY=0.5;exitDx=0;exitDy=0;" edge="1" target="EKluyFcLPia6Svizf0oM-122" parent="1" source="EKluyFcLPia6Svizf0oM-118">
          <mxGeometry width="50" height="50" relative="1" as="geometry">
            <mxPoint x="458" y="350" as="sourcePoint" />
            <mxPoint x="388" y="385" as="targetPoint" />
            <Array as="points">
              <mxPoint x="350" y="360" />
              <mxPoint x="370" y="360" />
            </Array>
          </mxGeometry>
        </mxCell>
        <mxCell id="EKluyFcLPia6Svizf0oM-122" value="" style="shape=waypoint;sketch=0;fillStyle=solid;size=6;pointerEvents=1;points=[];fillColor=none;resizable=0;rotatable=0;perimeter=centerPerimeter;snapToPoint=1;shadow=0;" vertex="1" parent="1">
          <mxGeometry x="350" y="310" width="40" height="40" as="geometry" />
        </mxCell>
        <mxCell id="EKluyFcLPia6Svizf0oM-124" value="(0,*)" style="text;html=1;align=center;verticalAlign=middle;resizable=0;points=[];autosize=1;strokeColor=none;fillColor=none;" vertex="1" parent="1">
          <mxGeometry x="285" y="330" width="40" height="20" as="geometry" />
        </mxCell>
        <mxCell id="EKluyFcLPia6Svizf0oM-125" value="(1,*)" style="text;html=1;align=center;verticalAlign=middle;resizable=0;points=[];autosize=1;strokeColor=none;fillColor=none;" vertex="1" parent="1">
          <mxGeometry x="235" y="505" width="40" height="20" as="geometry" />
        </mxCell>
        <mxCell id="EKluyFcLPia6Svizf0oM-126" value="juega" style="shape=rhombus;perimeter=rhombusPerimeter;whiteSpace=wrap;html=1;align=center;" vertex="1" parent="1">
          <mxGeometry x="400" y="415" width="120" height="45" as="geometry" />
        </mxCell>
        <mxCell id="EKluyFcLPia6Svizf0oM-127" value="" style="endArrow=none;html=1;startArrow=none;rounded=0;exitX=0.5;exitY=1;exitDx=0;exitDy=0;" edge="1" target="EKluyFcLPia6Svizf0oM-128" parent="1" source="EKluyFcLPia6Svizf0oM-126">
          <mxGeometry width="50" height="50" relative="1" as="geometry">
            <mxPoint x="470" y="500" as="sourcePoint" />
            <mxPoint x="458" y="465" as="targetPoint" />
            <Array as="points">
              <mxPoint x="460" y="510" />
            </Array>
          </mxGeometry>
        </mxCell>
        <mxCell id="EKluyFcLPia6Svizf0oM-128" value="" style="shape=waypoint;sketch=0;fillStyle=solid;size=6;pointerEvents=1;points=[];fillColor=none;resizable=0;rotatable=0;perimeter=centerPerimeter;snapToPoint=1;shadow=0;" vertex="1" parent="1">
          <mxGeometry x="640" y="490" width="40" height="40" as="geometry" />
        </mxCell>
        <mxCell id="EKluyFcLPia6Svizf0oM-129" value="" style="endArrow=none;html=1;startArrow=none;rounded=0;exitX=0.5;exitY=0;exitDx=0;exitDy=0;" edge="1" target="EKluyFcLPia6Svizf0oM-130" parent="1" source="EKluyFcLPia6Svizf0oM-126">
          <mxGeometry width="50" height="50" relative="1" as="geometry">
            <mxPoint x="558" y="400" as="sourcePoint" />
            <mxPoint x="488" y="435" as="targetPoint" />
            <Array as="points">
              <mxPoint x="460" y="324" />
            </Array>
          </mxGeometry>
        </mxCell>
        <mxCell id="EKluyFcLPia6Svizf0oM-130" value="" style="shape=waypoint;sketch=0;fillStyle=solid;size=6;pointerEvents=1;points=[];fillColor=none;resizable=0;rotatable=0;perimeter=centerPerimeter;snapToPoint=1;shadow=0;" vertex="1" parent="1">
          <mxGeometry x="360" y="304.27" width="40" height="40" as="geometry" />
        </mxCell>
        <mxCell id="EKluyFcLPia6Svizf0oM-131" value="(0,*)" style="text;html=1;align=center;verticalAlign=middle;resizable=0;points=[];autosize=1;strokeColor=none;fillColor=none;" vertex="1" parent="1">
          <mxGeometry x="620" y="490" width="40" height="20" as="geometry" />
        </mxCell>
        <mxCell id="EKluyFcLPia6Svizf0oM-132" value="(1,11)" style="text;html=1;align=center;verticalAlign=middle;resizable=0;points=[];autosize=1;strokeColor=none;fillColor=none;" vertex="1" parent="1">
          <mxGeometry x="380" y="300" width="50" height="20" as="geometry" />
        </mxCell>
        <mxCell id="EKluyFcLPia6Svizf0oM-133" value="(0,1)" style="text;html=1;align=center;verticalAlign=middle;resizable=0;points=[];autosize=1;strokeColor=none;fillColor=none;" vertex="1" parent="1">
          <mxGeometry x="330" y="332.5" width="40" height="20" as="geometry" />
        </mxCell>
        <mxCell id="EKluyFcLPia6Svizf0oM-134" value="(0,*)" style="text;html=1;align=center;verticalAlign=middle;resizable=0;points=[];autosize=1;strokeColor=none;fillColor=none;" vertex="1" parent="1">
          <mxGeometry x="370" y="330" width="40" height="20" as="geometry" />
        </mxCell>
        <mxCell id="EKluyFcLPia6Svizf0oM-135" value="" style="endArrow=none;html=1;rounded=0;entryX=0;entryY=0.5;entryDx=0;entryDy=0;" edge="1" parent="1" source="EKluyFcLPia6Svizf0oM-101" target="EKluyFcLPia6Svizf0oM-98">
          <mxGeometry width="50" height="50" relative="1" as="geometry">
            <mxPoint x="400" y="340" as="sourcePoint" />
            <mxPoint x="450" y="290" as="targetPoint" />
          </mxGeometry>
        </mxCell>
        <mxCell id="EKluyFcLPia6Svizf0oM-136" value="goles" style="ellipse;whiteSpace=wrap;html=1;align=center;" vertex="1" parent="1">
          <mxGeometry x="500" y="366" width="100" height="40" as="geometry" />
        </mxCell>
        <mxCell id="EKluyFcLPia6Svizf0oM-137" value="" style="endArrow=none;html=1;rounded=0;entryX=0.12;entryY=0.818;entryDx=0;entryDy=0;entryPerimeter=0;exitX=0.669;exitY=0.171;exitDx=0;exitDy=0;exitPerimeter=0;" edge="1" target="EKluyFcLPia6Svizf0oM-136" parent="1" source="EKluyFcLPia6Svizf0oM-126">
          <mxGeometry width="50" height="50" relative="1" as="geometry">
            <mxPoint x="550.04" y="349.995" as="sourcePoint" />
            <mxPoint x="631" y="378" as="targetPoint" />
          </mxGeometry>
        </mxCell>
      </root>
    </mxGraphModel>
  </diagram>
</mxfile>
